<svg width="24" height="24" viewBox="0 0 24 24" fill="none" xmlns="http://www.w3.org/2000/svg">
<path d="M11.2 6.4H12.8V0H11.2V6.4Z" fill="#353535"/>
<path d="M8 3.2V6.4H6.4V3.2H8Z" fill="#353535"/>
<path fill-rule="evenodd" clip-rule="evenodd" d="M0 10.4C0 9.07452 1.07452 8 2.4 8H16.8C17.845 8 18.734 8.66785 19.0634 9.6H21.6C22.9255 9.6 24 10.6745 24 12V15.2C24 16.5255 22.9255 17.6 21.6 17.6H19.2V18.4C19.2 21.4928 16.6928 24 13.6 24H5.6C2.50721 24 0 21.4928 0 18.4V10.4ZM19.2 16H21.6C22.0418 16 22.4 15.6418 22.4 15.2V12C22.4 11.5582 22.0418 11.2 21.6 11.2H19.2V16Z" fill="#353535"/>
</svg>
