<svg width="20" height="20" viewBox="0 0 20 20" fill="none" xmlns="http://www.w3.org/2000/svg">
<path d="M10.8334 5.00002C11.7539 5.00002 12.5001 4.25383 12.5001 3.33335C12.5001 2.41288 11.7539 1.66669 10.8334 1.66669C9.91294 1.66669 9.16675 2.41288 9.16675 3.33335C9.16675 4.25383 9.91294 5.00002 10.8334 5.00002Z" fill="#141414"/>
<path d="M11.6484 10.225C11.8526 10.5316 12.1576 10.7641 12.5076 10.8808L14.7367 11.6241L15.2642 10.0441L13.0351 9.30081L11.6492 7.22165C11.488 6.98093 11.2672 6.78601 11.0084 6.65581L9.8134 6.05831C9.45789 5.88058 9.05035 5.83652 8.66506 5.93415L6.00423 6.59831C5.77068 6.6565 5.55249 6.76453 5.36463 6.91499C5.17677 7.06546 5.02369 7.25478 4.9159 7.46998L3.4209 10.4608L4.91173 11.2066L6.40673 8.21581L8.25923 7.75248L6.7559 14.7075L3.69423 16.8133L4.6384 18.1866L7.7009 16.08C8.05173 15.8383 8.29506 15.4758 8.38423 15.0591L8.81506 13.0691L10.9126 14.6425L11.6834 18.4966L13.3176 18.1691L12.5467 14.3133C12.4658 13.9116 12.2397 13.5539 11.9117 13.3083L10.1026 11.9516L10.6417 8.71415L11.6484 10.225Z" fill="#141414"/>
</svg>
