<svg width="16" height="17" viewBox="0 0 16 17" fill="none" xmlns="http://www.w3.org/2000/svg">
<path d="M14.6313 6.61933C14.5894 6.4959 14.5122 6.38746 14.4094 6.30737C14.3066 6.22728 14.1825 6.17906 14.0526 6.16866L10.2519 5.86666L8.60727 2.22599C8.55489 2.10874 8.4697 2.00914 8.36197 1.93923C8.25424 1.86932 8.12858 1.83209 8.00015 1.83202C7.87173 1.83195 7.74603 1.86904 7.63822 1.93884C7.53041 2.00863 7.44511 2.10813 7.3926 2.22533L5.74794 5.86666L1.94727 6.16866C1.81957 6.17878 1.69749 6.22547 1.59564 6.30315C1.49378 6.38083 1.41646 6.48621 1.37293 6.60668C1.3294 6.72715 1.32149 6.85762 1.35017 6.98246C1.37884 7.10731 1.44287 7.22125 1.5346 7.31066L4.34327 10.0487L3.34994 14.35C3.31977 14.4802 3.32944 14.6165 3.37768 14.7411C3.42592 14.8657 3.51051 14.973 3.62047 15.049C3.73043 15.1249 3.86068 15.1661 3.99433 15.1671C4.12797 15.1681 4.25883 15.1289 4.36994 15.0547L7.99994 12.6347L11.6299 15.0547C11.7435 15.1301 11.8774 15.1689 12.0137 15.1659C12.15 15.1629 12.2821 15.1182 12.3922 15.0379C12.5023 14.9576 12.5853 14.8455 12.6298 14.7167C12.6743 14.5879 12.6783 14.4485 12.6413 14.3173L11.4219 10.0507L14.4459 7.32933C14.6439 7.15066 14.7166 6.87199 14.6313 6.61933Z" fill="#141414"/>
</svg>
