<svg width="14" height="14" viewBox="0 0 14 14" fill="none" xmlns="http://www.w3.org/2000/svg">
<path fill-rule="evenodd" clip-rule="evenodd" d="M4.4589 4.60465L6.27844 0.759484C6.31339 0.682131 6.36799 0.616797 6.43604 0.570922C6.50409 0.525047 6.58285 0.500474 6.66335 0.5C6.81581 0.5 6.96827 0.586198 7.05075 0.759484L8.8703 4.60465L12.9509 5.22314C13.0527 5.2402 13.1457 5.29415 13.2145 5.37591C13.2832 5.45766 13.3235 5.56221 13.3283 5.67191C13.334 5.74493 13.3243 5.81839 13.2998 5.88684C13.2752 5.95529 13.2366 6.01698 13.1867 6.06735L10.2516 9.04964L10.9431 13.2529C11.0081 13.6466 10.6432 13.955 10.3216 13.779L6.66335 11.7742L3.00676 13.779C2.96852 13.8002 2.92752 13.8152 2.88513 13.8234C2.60103 13.8768 2.3286 13.5977 2.38525 13.2529L3.07675 9.04964L0.142479 6.06735C0.0970128 6.02124 0.0609082 5.96567 0.0364023 5.90406C0.0118965 5.84246 -0.000488523 5.77615 1.47446e-05 5.70923C0.000228597 5.61468 0.0244096 5.52195 0.0699972 5.44086C0.102821 5.38227 0.14756 5.33229 0.200913 5.29461C0.254265 5.25693 0.31487 5.2325 0.378253 5.22314L4.4589 4.60465ZM6.66335 10.7434C6.73 10.7434 6.79665 10.7594 6.85663 10.7932L9.92753 12.4763L9.34934 8.95989C9.33572 8.87895 9.34099 8.79567 9.36467 8.71741C9.38835 8.63915 9.42973 8.5683 9.48514 8.51113L11.9062 6.04958L8.53038 5.53772C8.46048 5.52646 8.39418 5.4973 8.33715 5.45272C8.28013 5.40815 8.23408 5.3495 8.20296 5.28179L6.66501 2.03113L6.66335 2.0338V10.7425V10.7434Z" fill="#141414"/>
</svg>
