<svg width="14" height="15" viewBox="0 0 14 15" fill="none" xmlns="http://www.w3.org/2000/svg">
<path d="M3.34381 9.04866L2.35048 13.35C2.31972 13.4802 2.32896 13.6167 2.37698 13.7417C2.425 13.8666 2.50957 13.9741 2.61966 14.0502C2.72975 14.1263 2.86022 14.1674 2.99405 14.1682C3.12788 14.169 3.25883 14.1295 3.36981 14.0547L6.99981 11.6347L10.6298 14.0547C10.7434 14.1301 10.8773 14.1689 11.0136 14.1659C11.1498 14.1629 11.2819 14.1182 11.3921 14.0379C11.5022 13.9576 11.5851 13.8455 11.6297 13.7167C11.6742 13.5879 11.6782 13.4485 11.6411 13.3173L10.4218 9.05066L13.4458 6.32933C13.5427 6.24212 13.6118 6.12844 13.6448 6.00234C13.6777 5.87624 13.6729 5.74325 13.6311 5.61982C13.5892 5.4964 13.5121 5.38795 13.4093 5.30788C13.3064 5.22781 13.1824 5.17964 13.0525 5.16933L9.25181 4.86666L7.60715 1.226C7.55471 1.10877 7.46946 1.00922 7.36169 0.93937C7.25392 0.86952 7.12824 0.832352 6.99981 0.832352C6.87139 0.832352 6.74571 0.86952 6.63794 0.93937C6.53017 1.00922 6.44492 1.10877 6.39248 1.226L4.74781 4.86666L0.947147 5.16866C0.819451 5.17878 0.697373 5.22547 0.595517 5.30315C0.493662 5.38083 0.416343 5.48621 0.372809 5.60668C0.329276 5.72716 0.321373 5.85762 0.350044 5.98247C0.378715 6.10731 0.442748 6.22125 0.534481 6.31066L3.34381 9.04866ZM5.24581 6.16466C5.36481 6.15529 5.47909 6.11407 5.57668 6.04534C5.67427 5.9766 5.75157 5.88288 5.80048 5.774L6.99981 3.12L8.19915 5.774C8.24806 5.88288 8.32536 5.9766 8.42295 6.04534C8.52053 6.11407 8.63482 6.15529 8.75381 6.16466L11.4018 6.37466L9.22115 8.33733C9.03181 8.508 8.95648 8.77066 9.02581 9.016L9.86115 11.9393L7.37048 10.2787C7.26116 10.2053 7.13248 10.1661 7.00081 10.1661C6.86915 10.1661 6.74047 10.2053 6.63115 10.2787L4.02848 12.014L4.72848 8.98333C4.75415 8.87186 4.7507 8.75567 4.71848 8.64592C4.68625 8.53617 4.62633 8.43656 4.54448 8.35666L2.51915 6.382L5.24581 6.16466Z" fill="#141414"/>
</svg>
