<svg width="40" height="40" viewBox="0 0 40 40" fill="none" xmlns="http://www.w3.org/2000/svg">
<path d="M16.8055 11.4691C17.7511 10.8372 18.8628 10.5 20 10.5C21.525 10.5 22.9875 11.1058 24.0659 12.1841C25.1442 13.2625 25.75 14.725 25.75 16.25C25.75 17.3872 25.4128 18.4989 24.781 19.4445C24.1491 20.3901 23.2511 21.1271 22.2004 21.5623C21.1498 21.9975 19.9936 22.1114 18.8782 21.8895C17.7628 21.6677 16.7383 21.12 15.9341 20.3159C15.13 19.5117 14.5824 18.4872 14.3605 17.3718C14.1386 16.2564 14.2525 15.1002 14.6877 14.0496C15.1229 12.9989 15.8599 12.1009 16.8055 11.4691Z" fill="black" stroke="#141414"/>
<path d="M20 2.5C16.5388 2.5 13.1554 3.52636 10.2775 5.44928C7.39967 7.37221 5.15665 10.1053 3.83212 13.303C2.50758 16.5007 2.16102 20.0194 2.83627 23.4141C3.51151 26.8087 5.17822 29.9269 7.62564 32.3744C10.0731 34.8218 13.1913 36.4885 16.5859 37.1637C19.9806 37.839 23.4993 37.4924 26.697 36.1679C29.8947 34.8434 32.6278 32.6003 34.5507 29.7225C36.4737 26.8446 37.5 23.4612 37.5 20C37.4947 15.3603 35.6493 10.9122 32.3685 7.63148C29.0878 4.35074 24.6397 2.50529 20 2.5ZM29.99 31.1575C29.9651 29.5179 29.2971 27.9537 28.1299 26.802C26.9627 25.6502 25.3898 25.0031 23.75 25H16.25C14.6102 25.0031 13.0373 25.6502 11.8701 26.802C10.7029 27.9537 10.0349 29.5179 10.01 31.1575C7.74321 29.1334 6.14467 26.4686 5.42605 23.5158C4.70743 20.5631 4.90263 17.4617 5.98581 14.6223C7.06898 11.783 8.98903 9.33958 11.4917 7.61571C13.9944 5.89183 16.9617 4.96878 20.0006 4.96878C23.0396 4.96878 26.0069 5.89183 28.5095 7.61571C31.0122 9.33958 32.9323 11.783 34.0155 14.6223C35.0986 17.4617 35.2938 20.5631 34.5752 23.5158C33.8566 26.4686 32.2581 29.1334 29.9913 31.1575H29.99Z" fill="black"/>
</svg>
